<?xml version="1.0" standalone="no"?>
<!DOCTYPE svg PUBLIC "-//W3C//DTD SVG 20010904//EN"
 "http://www.w3.org/TR/2001/REC-SVG-20010904/DTD/svg10.dtd">
<svg version="1.0" xmlns="http://www.w3.org/2000/svg"
 width="672.000000pt" height="672.000000pt" viewBox="0 0 672.000000 672.000000"
 preserveAspectRatio="xMidYMid meet">
<metadata>
Created by potrace 1.14, written by Peter Selinger 2001-2017
</metadata>
<g transform="translate(0.000000,672.000000) scale(0.100000,-0.100000)"
fill="#000000" stroke="none">
<path d="M790 5158 l0 -1320 30 4 c17 3 33 2 35 -2 3 -4 23 -4 45 0 22 4 40 5
40 1 0 -3 23 -6 50 -6 28 0 50 3 50 6 0 3 20 3 43 -1 24 -3 52 -4 62 0 9 3 36
4 59 1 22 -4 69 -4 103 -1 35 3 70 3 79 0 10 -4 37 -3 61 0 23 4 43 4 43 0 0
-4 20 -4 45 0 25 4 45 4 45 1 0 -3 23 -6 50 -6 28 0 50 3 50 6 0 3 20 3 43 -1
24 -3 52 -4 62 0 9 3 36 4 59 1 22 -4 69 -4 103 -1 35 3 70 3 79 0 10 -4 37
-3 61 0 23 4 43 4 43 0 0 -4 20 -4 45 0 25 4 45 4 45 1 0 -3 23 -6 50 -6 28 0
50 4 50 8 0 5 4 6 9 3 7 -5 59 -7 111 -5 8 0 53 0 100 0 47 0 95 -1 108 -1
l22 0 0 255 0 255 -655 0 c-360 0 -655 3 -656 8 0 4 -1 482 -2 1062 l-2 1055
-282 1 -283 2 0 -1320z"/>
<path d="M3532 5676 c0 -904 1 -919 69 -1121 29 -87 114 -255 148 -292 9 -10
28 -34 43 -53 80 -106 244 -236 368 -292 106 -48 156 -66 231 -83 11 -2 30 -7
42 -11 12 -4 33 -8 47 -9 14 -1 50 -6 80 -10 71 -11 258 -11 335 -1 50 6 101
16 160 30 6 2 27 6 48 11 20 4 40 11 43 16 3 5 13 9 23 9 33 0 257 117 297
155 6 5 26 21 45 34 28 20 90 85 176 184 79 92 185 335 208 477 4 25 9 54 12
65 2 11 6 76 9 145 2 69 4 127 5 130 0 3 0 41 -1 85 -1 44 -1 86 -1 93 0 15 0
98 0 115 0 6 0 50 0 97 0 47 0 93 0 103 0 9 0 36 1 60 0 23 -1 86 -3 140 -1
53 0 97 3 97 3 0 4 39 2 87 -2 49 -2 108 -1 133 1 25 1 50 1 55 -5 58 -6 205
-2 205 3 0 4 33 2 73 l-3 74 -285 0 -284 1 -1 -781 c-1 -773 -2 -818 -15 -867
-3 -14 -8 -35 -10 -47 -2 -12 -9 -35 -16 -50 -6 -16 -12 -30 -13 -33 -4 -18
-43 -92 -69 -130 -39 -59 -134 -150 -183 -175 -21 -11 -41 -24 -45 -30 -4 -5
-8 -7 -8 -3 0 4 -19 -2 -43 -12 -23 -10 -58 -22 -77 -27 -43 -9 -243 -9 -288
0 -172 38 -324 160 -406 328 -45 94 -49 107 -68 209 -6 33 -10 366 -11 835
l-2 780 -282 1 -282 2 1 -802z"/>
<path d="M1767 3004 c-1 -1 -31 -5 -67 -8 -83 -9 -133 -17 -143 -23 -4 -2 -20
-7 -35 -9 -137 -25 -342 -141 -443 -252 -69 -75 -80 -92 -119 -167 -60 -116
-84 -216 -84 -360 0 -154 28 -265 88 -359 136 -209 356 -321 868 -441 235 -55
351 -90 416 -128 96 -54 138 -125 130 -224 -13 -180 -169 -278 -438 -276 -289
2 -539 94 -797 294 l-61 48 -34 -41 c-18 -23 -37 -46 -43 -52 -5 -6 -36 -43
-68 -81 -33 -39 -80 -94 -105 -124 -79 -91 -78 -87 -42 -118 18 -15 37 -32 44
-38 13 -13 142 -105 167 -120 140 -81 371 -177 482 -199 28 -6 55 -12 97 -21
110 -25 379 -36 526 -22 190 19 383 85 521 178 58 39 193 176 193 195 0 8 5
14 10 14 6 0 10 5 10 12 0 6 6 19 13 27 45 53 96 242 100 373 4 85 -11 197
-33 253 -6 17 -11 31 -10 33 0 1 -14 31 -32 65 -30 57 -152 197 -171 197 -4 0
-17 9 -29 19 -22 22 -218 121 -237 121 -6 0 -19 4 -29 10 -38 22 -342 106
-452 126 -14 3 -33 7 -42 10 -9 3 -26 7 -37 9 -213 47 -368 123 -408 199 -21
40 -24 49 -25 116 -5 219 259 334 597 260 166 -36 369 -134 516 -249 l25 -20
40 55 c21 31 59 83 84 117 25 34 68 94 94 132 27 39 56 76 64 82 14 11 13 16
-8 38 -35 37 -203 147 -295 193 -115 57 -280 110 -395 127 -49 8 -75 13 -75
15 0 6 -321 19 -328 14z"/>
<path d="M3723 2702 l2 -255 408 0 c366 0 407 -2 408 -16 0 -9 1 -486 2 -1060
l2 -1044 23 -8 c12 -5 22 -5 22 -1 0 4 27 5 59 2 33 -3 67 -3 75 0 8 3 51 3
96 0 44 -3 80 -1 80 3 0 5 4 6 9 3 5 -3 40 -6 77 -6 38 1 81 0 97 0 26 0 27 1
28 57 0 32 0 511 -1 1064 l0 1006 403 0 c222 0 408 3 413 6 7 4 11 398 5 488
-1 15 -99 16 -1105 16 l-1104 0 1 -255z"/>
</g>
</svg>
