<svg height="100%" preserveAspectRatio="xMidYMid meet" viewBox="0 0 16 16" fill="none"
    xmlns="http://www.w3.org/2000/svg">
    <path
        d="M2.53907 10.6159C2.32693 10.8705 2.36132 11.2488 2.61589 11.4609C2.87046 11.6731 3.24879 11.6387 3.46093 11.3841L2.53907 10.6159ZM8 5L8.46093 4.61589C8.34694 4.47909 8.17807 4.4 8 4.4C7.82193 4.4 7.65306 4.47909 7.53907 4.61589L8 5ZM12.5391 11.3841C12.7512 11.6387 13.1295 11.6731 13.3841 11.4609C13.6387 11.2488 13.6731 10.8705 13.4609 10.6159L12.5391 11.3841ZM3.46093 11.3841L8.46093 5.38411L7.53907 4.61589L2.53907 10.6159L3.46093 11.3841ZM7.53907 5.38411L12.5391 11.3841L13.4609 10.6159L8.46093 4.61589L7.53907 5.38411Z"
        fill="white" />
</svg>