<svg height="100%" preserveAspectRatio="xMidYMid meet" viewBox="0 0 18 21" fill="none"
    xmlns="http://www.w3.org/2000/svg">
    <path
        d="M2.74223 7.404V0.756H0.966235V9H6.84624V7.404H2.74223ZM13.2672 9.144C15.4512 9.144 16.9992 7.608 16.9992 5.436V0.756H15.2232V5.364C15.2232 6.636 14.4072 7.536 13.2672 7.536C12.1152 7.536 11.2992 6.636 11.2992 5.364V0.756H9.53517V5.436C9.53517 7.608 11.0712 9.144 13.2672 9.144Z"
        fill="white" />
    <path
        d="M4.52709 20.144C6.54309 20.144 7.73109 19.1 7.73109 17.528C7.73109 16.004 6.55509 15.476 4.77909 15.08C3.50709 14.792 3.01509 14.6 3.01509 14C3.01509 13.508 3.47109 13.112 4.22709 13.112C5.01909 13.112 5.84709 13.436 6.57909 14.024L7.50309 12.752C6.66309 12.032 5.61909 11.612 4.27509 11.612C2.47509 11.612 1.22709 12.656 1.22709 14.18C1.22709 15.776 2.46309 16.268 4.20309 16.664C5.46309 16.952 5.94309 17.132 5.94309 17.72C5.94309 18.236 5.48709 18.644 4.59909 18.644C3.55509 18.644 2.66709 18.236 1.88709 17.564L0.867094 18.776C1.82709 19.664 3.09909 20.144 4.52709 20.144ZM12.6968 20H14.4728V13.352H17.0408V11.756H10.1288V13.352H12.6968V20Z"
        fill="#FDE115" />
</svg>