<svg width="26" height="25" viewBox="0 0 26 25" fill="none" xmlns="http://www.w3.org/2000/svg">
    <path d="M10.8332 16.6666H5.4165V21.875" stroke-width="2" stroke-linecap="round" stroke-linejoin="round" />
    <path
        d="M21.0357 15.6217C20.4283 17.0673 19.4114 18.32 18.1004 19.2375C16.7894 20.155 15.2371 20.7005 13.6198 20.812C12.0025 20.9235 10.3851 20.5964 8.95144 19.8681C7.51779 19.1398 6.32539 18.0393 5.50977 16.6918"
        stroke-width="2" stroke-linecap="round" stroke-linejoin="round" />
    <path d="M15.1665 8.33333H20.5832V3.125" stroke-width="2" stroke-linecap="round" stroke-linejoin="round" />
    <path
        d="M4.96436 9.37824C5.57176 7.93268 6.58874 6.67994 7.89969 5.76243C9.21065 4.84492 10.763 4.29943 12.3803 4.18796C13.9976 4.07649 15.615 4.40351 17.0487 5.13185C18.4823 5.86019 19.6747 6.96065 20.4903 8.30813"
        stroke-width="2" stroke-linecap="round" stroke-linejoin="round" />
</svg>