<svg width="20" height="20" viewBox="0 0 20 20" fill="none" xmlns="http://www.w3.org/2000/svg">
<path d="M8.33329 13.8333C8.60943 13.8333 8.83329 13.6095 8.83329 13.3333C8.83329 13.0572 8.60943 12.8333 8.33329 12.8333V13.8333ZM4.16663 13.3333V12.8333C3.89048 12.8333 3.66663 13.0572 3.66663 13.3333H4.16663ZM3.66663 17.5C3.66663 17.7761 3.89048 18 4.16663 18C4.44277 18 4.66663 17.7761 4.66663 17.5H3.66663ZM8.33329 12.8333H4.16663V13.8333H8.33329V12.8333ZM3.66663 13.3333V17.5H4.66663V13.3333H3.66663Z" fill="white"/>
<path d="M16.1813 12.4974C15.7141 13.6538 14.9318 14.656 13.9234 15.39C12.915 16.124 11.7208 16.5604 10.4768 16.6496C9.23268 16.7388 7.98853 16.4772 6.88572 15.8945C5.78292 15.3118 4.86569 14.4315 4.23828 13.3535" stroke="white" stroke-linecap="round" stroke-linejoin="round"/>
<path d="M11.6666 6.16667C11.3905 6.16667 11.1666 6.39052 11.1666 6.66667C11.1666 6.94281 11.3905 7.16667 11.6666 7.16667V6.16667ZM15.8333 6.66667V7.16667C16.1094 7.16667 16.3333 6.94281 16.3333 6.66667H15.8333ZM16.3333 2.5C16.3333 2.22386 16.1094 2 15.8333 2C15.5572 2 15.3333 2.22386 15.3333 2.5H16.3333ZM11.6666 7.16667H15.8333V6.16667H11.6666V7.16667ZM16.3333 6.66667V2.5H15.3333V6.66667H16.3333Z" fill="white"/>
<path d="M3.81873 7.50261C4.28596 6.34615 5.06825 5.34397 6.07668 4.60996C7.0851 3.87595 8.27922 3.43955 9.5233 3.35038C10.7674 3.2612 12.0115 3.52282 13.1143 4.10549C14.2171 4.68817 15.1344 5.56853 15.7618 6.64652" stroke="white" stroke-linecap="round" stroke-linejoin="round"/>
</svg>
