<svg width="24" height="24" viewBox="0 0 24 24" fill="none" xmlns="http://www.w3.org/2000/svg">
    <path
        d="M12.2902 20.8968L12.4677 21.3643L12.4677 21.3643L12.2902 20.8968ZM11.7098 20.8968L11.5323 21.3643L11.5323 21.3643L11.7098 20.8968ZM5 3.5H19V2.5H5V3.5ZM19.5 4V10.1649H20.5V4H19.5ZM4.5 10.1649V4H3.5V10.1649H4.5ZM19.5 10.1649C19.5 17.2025 13.5243 19.8933 12.1127 20.4294L12.4677 21.3643C13.9274 20.8099 20.5 17.8903 20.5 10.1649H19.5ZM3.5 10.1649C3.5 17.8903 10.0726 20.8099 11.5323 21.3643L11.8873 20.4294C10.4757 19.8933 4.5 17.2025 4.5 10.1649H3.5ZM12.1127 20.4294C12.0368 20.4582 11.9632 20.4582 11.8873 20.4294L11.5323 21.3643C11.8369 21.4799 12.1631 21.4799 12.4677 21.3643L12.1127 20.4294ZM19 3.5C19.2761 3.5 19.5 3.72386 19.5 4H20.5C20.5 3.17157 19.8284 2.5 19 2.5V3.5ZM5 2.5C4.17157 2.5 3.5 3.17157 3.5 4H4.5C4.5 3.72386 4.72386 3.5 5 3.5V2.5Z"
        fill="white" />
    <path d="M11.9502 15H12.0502V15.1H11.9502V15Z" stroke-width="2" stroke-linecap="round" stroke-linejoin="round" />
    <path d="M12 8V12" stroke-width="2" stroke-linecap="round" stroke-linejoin="round" />
</svg>