<svg width="17" height="17" viewBox="0 0 17 17" fill="none" xmlns="http://www.w3.org/2000/svg">
<path d="M11.928 4.10583C12.1969 4.10583 12.4192 4.30569 12.4544 4.565L12.4592 4.63708V14.283C12.4592 14.5764 12.2214 14.8143 11.928 14.8143C11.659 14.8143 11.4368 14.6144 11.4016 14.3551L11.3967 14.283V4.63708C11.3967 4.34368 11.6346 4.10583 11.928 4.10583Z" fill="white"/>
<path d="M14.4399 11.0068C14.6469 10.7989 14.9832 10.7981 15.1912 11.0051C15.3802 11.1932 15.3981 11.4883 15.2442 11.6967L15.1929 11.7564L12.3045 14.6582C12.1157 14.8478 11.8194 14.8651 11.6111 14.7099L11.5515 14.6582L8.66303 11.7564C8.45605 11.5484 8.45682 11.2121 8.66477 11.0051C8.85381 10.8169 9.14899 10.8004 9.3566 10.9552L9.41607 11.0068L11.9277 13.5299L14.4399 11.0068Z" fill="white"/>
<path d="M4.89551 2.18372C5.16446 2.18372 5.38673 2.38357 5.42191 2.64288L5.42676 2.71497V12.3609C5.42676 12.6543 5.18891 12.8921 4.89551 12.8921C4.62656 12.8921 4.40429 12.6923 4.36911 12.433L4.36426 12.3609V2.71497C4.36426 2.42156 4.60211 2.18372 4.89551 2.18372Z" fill="white"/>
<path d="M4.51899 2.33982C4.70777 2.15016 5.00403 2.13292 5.21236 2.28809L5.27202 2.33982L8.16045 5.24162C8.36744 5.44957 8.36666 5.78594 8.15871 5.99292C7.96967 6.18109 7.6745 6.19756 7.46688 6.04276L7.40741 5.99119L4.89535 3.46732L2.3836 5.99119C2.19543 6.18023 1.90033 6.19806 1.692 6.04422L1.6323 5.99292C1.44326 5.80475 1.42543 5.50966 1.57926 5.30133L1.63056 5.24162L4.51899 2.33982Z" fill="white"/>
</svg>
